<?xml version="1.0" encoding="UTF-8"?>
<svg id="Layer_2" data-name="Layer 2" xmlns="http://www.w3.org/2000/svg" viewBox="0 0 212 42.63">
  <defs>
    <style>
      .cls-1 {
        fill: #fff;
      }
    </style>
  </defs>
  <g id="Layer_3" data-name="Layer 3">
    <path class="cls-1" d="M0,42.63V23.72c0-2.12,1.15-4.06,3-5.09,0,0,2.33-1.28,5-2C13.21,15.24,167.83,.93,170.99,.63c0,0,0,0,0,0,6.4-.61,10.94-1.04,16,0,0,0,6.69,1.38,10.99,4.99,0,0,0,0,0,0,2.9,2.45,4.38,4.98,5.01,6,1.5,2.46,4.64,6.93,8.9,12.95,.03,2.02,.07,4.03,.1,6.05C141.33,34.63,70.67,38.63,0,42.63Z"/>
  </g>
</svg>